<?xml version="1.0" encoding="UTF-8"?>
<svg width="976px" height="132px" viewBox="0 0 976 132" version="1.1" xmlns="http://www.w3.org/2000/svg" xmlns:xlink="http://www.w3.org/1999/xlink">
    <!-- Generator: Sketch 63.1 (92452) - https://sketch.com -->
    <title>goldMorning-bg-img</title>
    <desc>Created with Sketch.</desc>
    <defs>
        <linearGradient x1="0%" y1="50%" x2="100%" y2="50%" id="linearGradient-1">
            <stop stop-color="#FAFAFA" offset="0%"></stop>
            <stop stop-color="#F6F6F6" offset="50.2121222%"></stop>
            <stop stop-color="#FAFAFA" offset="100%"></stop>
        </linearGradient>
    </defs>
    <g id="goldMorning-bg-img" stroke="none" stroke-width="1" fill="none" fill-rule="evenodd">
        <path d="M31.4034729,132 C35.1988244,132 38.9635683,131.331492 42.6977044,129.994475 C46.4318406,128.657459 49.8292923,126.651934 52.8900597,123.977901 C55.8283963,121.425414 58.2157948,118.20442 60.0522553,114.314917 C61.8887157,110.425414 62.8069459,105.745856 62.8069459,100.276243 L62.8069459,100.276243 L62.8069459,59.4364641 L29.1997204,59.4364641 L29.1997204,75.8453039 L44.0750497,75.8453039 L44.0750497,100.276243 C44.0750497,104.773481 42.8201351,108.085635 40.3103059,110.212707 C37.8004767,112.339779 34.8315324,113.403315 31.4034729,113.403315 C27.9754135,113.403315 25.0064692,112.339779 22.49664,110.212707 C19.9868107,108.085635 18.7318961,104.773481 18.7318961,100.276243 L18.7318961,100.276243 L18.7318961,31.7237569 C18.7318961,27.2265193 19.9868107,23.9143646 22.49664,21.7872928 C25.0064692,19.660221 27.9754135,18.5966851 31.4034729,18.5966851 C34.8315324,18.5966851 37.8004767,19.660221 40.3103059,21.7872928 C42.8201351,23.9143646 44.0750497,27.2265193 44.0750497,31.7237569 L44.0750497,31.7237569 L44.0750497,38.2872928 L62.8069459,38.2872928 L62.8069459,31.7237569 C62.8069459,26.4972376 61.8887157,21.878453 60.0522553,17.8674033 C58.2157948,13.8563536 55.8283963,10.5138122 52.8900597,7.83977901 C49.8292923,5.28729282 46.4318406,3.34254144 42.6977044,2.00552486 C38.9635683,0.668508287 35.1988244,0 31.4034729,0 C27.6081214,0 23.8433776,0.668508287 20.1092414,2.00552486 C16.3751053,3.34254144 13.0388689,5.28729282 10.1005322,7.83977901 C7.03976489,10.5138122 4.59115101,13.8563536 2.75469061,17.8674033 C0.918230203,21.878453 0,26.4972376 0,31.7237569 L0,31.7237569 L0,100.276243 C0,105.745856 0.918230203,110.425414 2.75469061,114.314917 C4.59115101,118.20442 7.03976489,121.425414 10.1005322,123.977901 C13.0388689,126.651934 16.3751053,128.657459 20.1092414,129.994475 C23.8433776,131.331492 27.6081214,132 31.4034729,132 Z M120.130746,132 C123.926097,132 127.690841,131.331492 131.424977,129.994475 C135.159113,128.657459 138.556565,126.651934 141.617332,123.977901 C144.555669,121.425414 146.943068,118.20442 148.779528,114.314917 C150.615988,110.425414 151.534219,105.745856 151.534219,100.276243 L151.534219,100.276243 L151.534219,31.7237569 C151.534219,26.4972376 150.615988,21.878453 148.779528,17.8674033 C146.943068,13.8563536 144.555669,10.5138122 141.617332,7.83977901 C138.556565,5.28729282 135.159113,3.34254144 131.424977,2.00552486 C127.690841,0.668508287 123.926097,0 120.130746,0 C116.335394,0 112.57065,0.668508287 108.836514,2.00552486 C105.102378,3.34254144 101.766142,5.28729282 98.827805,7.83977901 C95.7670376,10.5138122 93.3184237,13.8563536 91.4819633,17.8674033 C89.6455029,21.878453 88.7272727,26.4972376 88.7272727,31.7237569 L88.7272727,31.7237569 L88.7272727,100.276243 C88.7272727,105.745856 89.6455029,110.425414 91.4819633,114.314917 C93.3184237,118.20442 95.7670376,121.425414 98.827805,123.977901 C101.766142,126.651934 105.102378,128.657459 108.836514,129.994475 C112.57065,131.331492 116.335394,132 120.130746,132 Z M121.127681,114 C117.756401,114 114.836632,112.934295 112.368374,110.802885 C109.900115,108.671474 108.665986,105.352564 108.665986,100.846154 L108.665986,100.846154 L108.665986,32.1538462 C108.665986,27.6474359 109.900115,24.3285256 112.368374,22.1971154 C114.836632,20.0657051 117.756401,19 121.127681,19 C124.498961,19 127.418731,20.0657051 129.886989,22.1971154 C132.355248,24.3285256 133.589377,27.6474359 133.589377,32.1538462 L133.589377,32.1538462 L133.589377,100.846154 C133.589377,105.352564 132.355248,108.671474 129.886989,110.802885 C127.418731,112.934295 124.498961,114 121.127681,114 Z M234.279877,130 L234.279877,111.376404 L197.845815,111.376404 L197.845815,0 L179.448417,0 L179.448417,130 L234.279877,130 Z M283.945399,130 C294.941901,130 303.370539,127.109082 309.231312,121.327247 C315.092085,115.545412 318.022472,106.568352 318.022472,94.3960674 L318.022472,94.3960674 L318.022472,33.5955056 C318.022472,22.8838951 315.273346,14.6067416 309.775095,8.76404494 C304.276844,2.92134831 296.210728,0 285.576748,0 L285.576748,0 L258.206333,0 L258.206333,130 L283.945399,130 Z M285.701185,114 L277.14811,114 L277.14811,19 L285.701185,19 C291.160595,19 294.921521,20.400641 296.983965,23.2019231 C299.046408,26.0032051 300.07763,29.9615385 300.07763,35.0769231 L300.07763,35.0769231 L300.07763,97.7403846 C300.07763,103.342949 298.985748,107.453526 296.801985,110.072115 C294.618221,112.690705 290.917954,114 285.701185,114 L285.701185,114 Z M410.36472,130 L410.36472,50.9410112 L410.728818,50.9410112 L428.93373,106.811798 L438.218235,106.811798 L456.605196,50.9410112 L456.969294,50.9410112 L456.969294,130 L475.538304,130 L475.538304,0 L457.515442,0 L433.849056,68.8342697 L433.484958,68.8342697 L409.636524,0 L391.79571,0 L391.79571,130 L410.36472,130 Z M534.855975,132 C538.651327,132 542.416071,131.331492 546.150207,129.994475 C549.884343,128.657459 553.281795,126.651934 556.342562,123.977901 C559.280899,121.425414 561.668297,118.20442 563.504758,114.314917 C565.341218,110.425414 566.259448,105.745856 566.259448,100.276243 L566.259448,100.276243 L566.259448,31.7237569 C566.259448,26.4972376 565.341218,21.878453 563.504758,17.8674033 C561.668297,13.8563536 559.280899,10.5138122 556.342562,7.83977901 C553.281795,5.28729282 549.884343,3.34254144 546.150207,2.00552486 C542.416071,0.668508287 538.651327,0 534.855975,0 C531.060624,0 527.29588,0.668508287 523.561744,2.00552486 C519.827608,3.34254144 516.491371,5.28729282 513.553035,7.83977901 C510.492267,10.5138122 508.043654,13.8563536 506.207193,17.8674033 C504.370733,21.878453 503.452503,26.4972376 503.452503,31.7237569 L503.452503,31.7237569 L503.452503,100.276243 C503.452503,105.745856 504.370733,110.425414 506.207193,114.314917 C508.043654,118.20442 510.492267,121.425414 513.553035,123.977901 C516.491371,126.651934 519.827608,128.657459 523.561744,129.994475 C527.29588,131.331492 531.060624,132 534.855975,132 Z M533.85904,114 C530.48776,114 527.567991,112.934295 525.099732,110.802885 C522.631474,108.671474 521.397344,105.352564 521.397344,100.846154 L521.397344,100.846154 L521.397344,32.1538462 C521.397344,27.6474359 522.631474,24.3285256 525.099732,22.1971154 C527.567991,20.0657051 530.48776,19 533.85904,19 C537.23032,19 540.150089,20.0657051 542.618348,22.1971154 C545.086606,24.3285256 546.320735,27.6474359 546.320735,32.1538462 L546.320735,32.1538462 L546.320735,100.846154 C546.320735,105.352564 545.086606,108.671474 542.618348,110.802885 C540.150089,112.934295 537.23032,114 533.85904,114 Z M611.51379,130 L611.51379,74.494382 L622.480082,74.494382 L639.558733,130 L658.974464,130 L639.199183,70.6601124 C645.071842,67.3735955 649.176711,63.0524345 651.51379,57.6966292 C653.850868,52.340824 655.019408,45.8286517 655.019408,38.1601124 C655.019408,12.7200375 644.232891,0 622.659857,0 L622.659857,0 L593.176711,0 L593.176711,130 L611.51379,130 Z M622.856909,58 L612.118488,58 L612.118488,18 L621.931183,18 C628.47298,18 632.916465,19.6816817 635.261637,23.045045 C636.372508,24.8468468 637.113089,26.978979 637.48338,29.4414414 C637.85367,31.9039039 638.038815,34.7567568 638.038815,38 C638.038815,41.2432432 637.85367,44.0960961 637.48338,46.5585586 C637.113089,49.021021 636.434223,51.0930931 635.446782,52.7747748 C634.335911,54.4564565 632.793035,55.7477477 630.818153,56.6486486 C628.843271,57.5495495 626.189523,58 622.856909,58 L622.856909,58 Z M699.187935,130 L699.187935,51.8539326 L699.546384,51.8539326 L727.505388,130 L744.71093,130 L744.71093,0 L726.430042,0 L726.430042,78.3286517 L726.071593,78.3286517 L698.471038,0 L680.907048,0 L680.907048,130 L699.187935,130 Z M792.563841,130 L792.563841,0 L774.618999,0 L774.618999,130 L792.563841,130 Z M839.755862,130 L839.755862,51.8539326 L840.114311,51.8539326 L868.073315,130 L885.278856,130 L885.278856,0 L866.997969,0 L866.997969,78.3286517 L866.63952,78.3286517 L839.038964,0 L821.474974,0 L821.474974,130 L839.755862,130 Z M944.596527,132 C948.391879,132 952.156622,131.331492 955.890759,129.994475 C959.624895,128.657459 963.022346,126.651934 966.083114,123.977901 C969.02145,121.425414 971.408849,118.20442 973.245309,114.314917 C975.08177,110.425414 976,105.745856 976,100.276243 L976,100.276243 L976,59.4364641 L942.392775,59.4364641 L942.392775,75.8453039 L957.268104,75.8453039 L957.268104,100.276243 C957.268104,104.773481 956.013189,108.085635 953.50336,110.212707 C950.993531,112.339779 948.024586,113.403315 944.596527,113.403315 C941.168468,113.403315 938.199523,112.339779 935.689694,110.212707 C933.179865,108.085635 931.92495,104.773481 931.92495,100.276243 L931.92495,100.276243 L931.92495,31.7237569 C931.92495,27.2265193 933.179865,23.9143646 935.689694,21.7872928 C938.199523,19.660221 941.168468,18.5966851 944.596527,18.5966851 C948.024586,18.5966851 950.993531,19.660221 953.50336,21.7872928 C956.013189,23.9143646 957.268104,27.2265193 957.268104,31.7237569 L957.268104,31.7237569 L957.268104,38.2872928 L976,38.2872928 L976,31.7237569 C976,26.4972376 975.08177,21.878453 973.245309,17.8674033 C971.408849,13.8563536 969.02145,10.5138122 966.083114,7.83977901 C963.022346,5.28729282 959.624895,3.34254144 955.890759,2.00552486 C952.156622,0.668508287 948.391879,0 944.596527,0 C940.801176,0 937.036432,0.668508287 933.302296,2.00552486 C929.568159,3.34254144 926.231923,5.28729282 923.293586,7.83977901 C920.232819,10.5138122 917.784205,13.8563536 915.947745,17.8674033 C914.111284,21.878453 913.193054,26.4972376 913.193054,31.7237569 L913.193054,31.7237569 L913.193054,100.276243 C913.193054,105.745856 914.111284,110.425414 915.947745,114.314917 C917.784205,118.20442 920.232819,121.425414 923.293586,123.977901 C926.231923,126.651934 929.568159,128.657459 933.302296,129.994475 C937.036432,131.331492 940.801176,132 944.596527,132 Z" id="GOLDMORNING" fill="url(#linearGradient-1)" fill-rule="nonzero"></path>
    </g>
</svg>