<?xml version="1.0" encoding="UTF-8"?>
<svg width="32px" height="32px" viewBox="0 0 32 32" version="1.1" xmlns="http://www.w3.org/2000/svg" xmlns:xlink="http://www.w3.org/1999/xlink">
    <!-- Generator: Sketch 63.1 (92452) - https://sketch.com -->
    <title>price-ico-vip-yellow</title>
    <desc>Created with Sketch.</desc>
    <defs>
        <linearGradient x1="0.329919764%" y1="11.9713448%" x2="100%" y2="88.28125%" id="linearGradient-1">
            <stop stop-color="#FFD969" offset="0%"></stop>
            <stop stop-color="#F5B300" offset="100%"></stop>
            <stop stop-color="#FFAB86" offset="100%"></stop>
        </linearGradient>
    </defs>
    <g id="price-ico-vip-yellow" stroke="none" stroke-width="1" fill="none" fill-rule="evenodd">
        <path d="M30.9634507,10.5807747 L23.8209921,2.55348318 C23.5960047,2.32851905 23.3424474,2.15354695 23.0781764,2 L8.92182356,2.01428344 C8.65755259,2.16783038 8.40042408,2.34280249 8.17543664,2.56776662 L1.0365493,10.598629 C-0.345516433,11.9841224 -0.345516433,14.2230512 1.0365493,15.6085446 L13.5037107,28.9635581 C14.8857765,30.3454806 17.1249372,30.3454806 18.507003,28.9635581 L24.7637967,22.7038419 C24.8173651,22.650279 24.8566486,22.5860035 24.9066458,22.5288698 L30.9634507,15.5906903 C32.3455164,14.2051969 32.3455164,11.9662681 30.9634507,10.5807747 Z M25.0744936,11.5449067 L17.028514,21.5540252 C16.7749568,21.8718317 16.389264,22.0218077 16.0035712,22.0039535 C15.6143072,22.0218077 15.2357569,21.8718317 14.9786284,21.5540252 L6.95050499,11.5449067 C6.50767256,10.9914236 6.61480944,10.1558425 7.18977736,9.67734736 C7.76474527,9.19885222 8.59327046,9.25598597 9.0361029,9.80946915 L16.0035712,18.4937988 L22.9853245,9.80946915 C23.4281569,9.25598597 24.2566821,9.19885222 24.8352212,9.67734736 C25.4101892,10.1558425 25.517326,10.9914236 25.0744936,11.5449067 Z" id="形状" fill="url(#linearGradient-1)" fill-rule="nonzero"></path>
    </g>
</svg>