<?xml version="1.0" encoding="UTF-8"?>
<svg width="40px" height="40px" viewBox="0 0 40 40" version="1.1" xmlns="http://www.w3.org/2000/svg" xmlns:xlink="http://www.w3.org/1999/xlink">
    <!-- Generator: Sketch 63.1 (92452) - https://sketch.com -->
    <title>selling-ico-verified</title>
    <desc>Created with Sketch.</desc>
    <g id="selling-ico-verified" stroke="none" stroke-width="1" fill="none" fill-rule="evenodd">
        <g id="verified" fill-rule="nonzero">
            <rect id="矩形" fill="#000000" opacity="0" x="0" y="0" width="40" height="40"></rect>
            <path d="M17.7471066,22.6692751 L17.4905537,21.5389632 C17.4835249,21.5041843 17.4694672,21.4728834 17.4518951,21.4450603 C17.3640345,21.3163787 17.1918277,21.2815998 17.0617941,21.3685469 L16.2429334,21.9110966 L16.2429334,16.4855994 C16.2429334,16.3325725 16.1164142,16.2073688 15.9617796,16.2073688 L13.1150966,16.2073688 C12.960462,16.2073688 12.8339428,16.3325725 12.8339428,16.4855994 L12.8339428,17.7376372 C12.8339428,17.8906641 12.960462,18.0158678 13.1150966,18.0158678 L14.4154333,18.0158678 L14.4154333,24.7073144 C14.4154333,24.7664384 14.4330054,24.8220846 14.4681496,24.8707749 C14.5595246,24.9959787 14.7352458,25.0238018 14.861765,24.9333768 L17.6381595,22.9579394 C17.7295345,22.8918596 17.7717076,22.7805673 17.7471066,22.6692751 L17.7471066,22.6692751 Z M15.7544286,15.1361808 L15.7614574,15.1431366 C15.873919,15.2474731 16.0531546,15.2405173 16.1585873,15.1257472 L17.0055633,14.2145419 C17.1074816,14.1032496 17.1039671,13.9328334 16.99502,13.825019 L15.1077747,12.0130421 C14.9988276,11.9087056 14.8231064,11.9087056 14.7141593,12.0165199 L13.8460967,12.875557 C13.7371496,12.9833714 13.7371496,13.1607434 13.8496111,13.2685578 L15.7544286,15.1361808 L15.7544286,15.1361808 Z M32.4760549,8.10042387 L20.5340443,4.07303554 C20.389953,4.02434518 20.1966597,4 20.0033664,4 C19.8100731,4 19.6167798,4.02434518 19.4726885,4.07303554 L7.53067793,8.10042387 C7.23898079,8.19780459 7,8.53168134 7,8.83773503 L7,25.6150418 C7,25.9210955 7.20032213,26.3245299 7.44281734,26.5158135 L19.5570346,35.8574068 C19.6800395,35.9513096 19.8381885,36 19.999852,36 C20.1615155,36 20.3231789,35.9513096 20.4426693,35.8574068 L32.5568866,26.5158135 C32.7993819,26.3280078 32.9998552,25.9245734 32.9998552,25.6150418 L32.9998552,8.83773503 C33.0067328,8.53168134 32.767752,8.20128247 32.4760549,8.10042387 Z M30.476348,24.9472883 L20.0033664,33.0229323 L9.53038482,24.9472883 L9.53038482,10.0758613 L20.0033664,6.54233236 L30.476348,10.0758613 L30.476348,24.9472883 Z M17.8947124,12.520813 L17.8947124,13.7728508 C17.8947124,13.9258776 18.0212316,14.0510814 18.1758663,14.0510814 L21.9714435,14.0510814 L21.9714435,23.5804804 L20.6359626,23.5804804 L20.6359626,16.2769264 C20.6359626,16.1238996 20.5094434,15.9986958 20.3548088,15.9986958 L19.1247606,15.9986958 C18.9701259,15.9986958 18.8436067,16.1238996 18.8436067,16.2769264 L18.8436067,23.5804804 L17.7541355,23.5804804 C17.5995008,23.5804804 17.4729816,23.7056842 17.4729816,23.858711 L17.4729816,25.1455277 C17.4729816,25.2985545 17.5995008,25.4237583 17.7541355,25.4237583 L26.3293285,25.4237583 C26.4839631,25.4237583 26.6104823,25.2985545 26.6104823,25.1455277 L26.6104823,23.858711 C26.6104823,23.7056842 26.4839631,23.5804804 26.3293285,23.5804804 L23.7989436,23.5804804 L23.7989436,19.3374633 L25.8373092,19.3374633 C25.9919438,19.3374633 26.1184631,19.2122595 26.1184631,19.0592327 L26.1184631,17.8419737 C26.1184631,17.6889469 25.9919438,17.5637431 25.8373092,17.5637431 L23.7989436,17.5637431 L23.7989436,14.0510814 L26.0130304,14.0510814 C26.167665,14.0510814 26.2941842,13.9258776 26.2941842,13.7728508 L26.2941842,12.520813 C26.2941842,12.3677861 26.167665,12.2425823 26.0130304,12.2425823 L18.1758663,12.2425823 C18.0212316,12.2425823 17.8947124,12.3677861 17.8947124,12.520813 Z" id="形状" fill="#fff"></path>
        </g>
    </g>
</svg>