<?xml version="1.0" encoding="UTF-8"?>
<svg width="40px" height="40px" viewBox="0 0 40 40" version="1.1" xmlns="http://www.w3.org/2000/svg" xmlns:xlink="http://www.w3.org/1999/xlink">
    <!-- Generator: Sketch 63.1 (92452) - https://sketch.com -->
    <title>selling-ico-company</title>
    <desc>Created with Sketch.</desc>
    <g id="selling-ico-company" stroke="none" stroke-width="1" fill="none" fill-rule="evenodd">
        <g id="bank" fill-rule="nonzero">
            <rect id="矩形" fill="#000000" opacity="0" x="0" y="0" width="40" height="40"></rect>
            <path d="M32.9188227,18.2770902 C33.9638336,18.2770902 34.4001003,16.9097836 33.5512403,16.2795138 L20.6357171,6.71181164 C20.2572096,6.42939612 19.7426255,6.42939612 19.3641181,6.71181164 L6.44859487,16.2795138 C5.59973488,16.9063395 6.03600157,18.2770902 7.08439439,18.2770902 L9.17779812,18.2770902 L9.17779812,31.1580139 L6.74282124,31.1580139 C6.5940171,31.1580139 6.47226826,31.2820014 6.47226826,31.4335417 L6.47226826,33.2244722 C6.47226826,33.3760125 6.5940171,33.5 6.74282124,33.5 L33.2570139,33.5 C33.4058181,33.5 33.5275669,33.3760125 33.5275669,33.2244722 L33.5275669,31.4335417 C33.5275669,31.2820014 33.4058181,31.1580139 33.2570139,31.1580139 L30.822037,31.1580139 L30.822037,18.2770902 L32.9188227,18.2770902 Z M19.9999176,9.1399002 L29.1682819,15.93166 L10.8315533,15.93166 L19.9999176,9.1399002 Z M11.612775,18.2770902 L15.5696124,18.2770902 L15.5696124,31.1580139 L11.612775,31.1580139 L11.612775,18.2770902 Z M18.0045893,18.2770902 L21.9614267,18.2770902 L21.9614267,31.1580139 L18.0045893,31.1580139 L18.0045893,18.2770902 Z M28.3870602,31.1580139 L24.3964036,31.1580139 L24.3964036,18.2770902 L28.3870602,18.2770902 L28.3870602,31.1580139 Z" id="形状" fill="#fff"></path>
        </g>
    </g>
</svg>