<?xml version="1.0" encoding="UTF-8"?>
<svg width="40px" height="40px" viewBox="0 0 40 40" version="1.1" xmlns="http://www.w3.org/2000/svg" xmlns:xlink="http://www.w3.org/1999/xlink">
    <!-- Generator: Sketch 63.1 (92452) - https://sketch.com -->
    <title>selling-ico-platform</title>
    <desc>Created with Sketch.</desc>
    <g id="selling-ico-platform" stroke="none" stroke-width="1" fill="none" fill-rule="evenodd">
        <g id="CodeSandbox" fill-rule="nonzero">
            <rect id="矩形" fill="#000000" opacity="0" x="0" y="0" width="40" height="40"></rect>
            <path d="M27.1256588,9.11057692 L27.1400832,9.10336538 L27.1472954,9.10336538 L20,5 L12.8563107,9.10336538 L12.8490985,9.10336538 L12.8743412,9.11418269 L7,12.5 L7,27.5 L20,35 L33,27.5 L33,12.5 L27.1256588,9.11057692 Z M18.9434119,31.9567308 L13.7830791,28.9783654 L13.7830791,23.9447115 L9.10957004,21.2908654 L9.10957004,14.984375 L18.9434119,20.65625 L18.9434119,31.9567308 Z M10.126491,13.1310096 L14.9839112,10.3257212 L19.9927878,13.1995192 L25.0088766,10.3185096 L29.8843273,13.1310096 L20.0072122,18.828125 L10.126491,13.1310096 Z M30.89043,21.3088942 L26.2457698,23.9447115 L26.2457698,28.9603365 L21.0565881,31.953125 L21.0565881,20.6634615 L30.89043,14.9915865 L30.89043,21.3088942 Z" id="形状" fill="#fff"></path>
        </g>
    </g>
</svg>